<svg xmlns="http://www.w3.org/2000/svg" xmlns:xlink="http://www.w3.org/1999/xlink" width="1024" zoomAndPan="magnify" viewBox="0 0 768 767.999994" height="1024" preserveAspectRatio="xMidYMid meet" version="1.2"><g id="4a2a73f876"><path style=" stroke:none;fill-rule:nonzero;fill:#fe574d;fill-opacity:1;" d="M 626.273438 12.644531 L 628.589844 12.632812 C 631.105469 12.621094 633.625 12.621094 636.144531 12.617188 L 637.457031 12.617188 C 653.234375 12.597656 668.984375 12.984375 684.753906 13.5625 L 686.320312 13.617188 C 689.785156 13.746094 693.246094 13.875 696.710938 14.011719 L 698.046875 14.066406 C 703.457031 14.277344 708.84375 14.570312 714.238281 14.992188 L 713.125 17.226562 L 712.007812 17.226562 L 711.574219 18.207031 C 710.816406 19.597656 709.96875 20.519531 708.847656 21.636719 L 707.558594 22.929688 L 706.144531 24.332031 L 704.65625 25.820312 C 703.308594 27.167969 701.960938 28.511719 700.609375 29.851562 C 699.195312 31.261719 697.78125 32.671875 696.371094 34.082031 C 693.695312 36.753906 691.019531 39.421875 688.335938 42.089844 C 685.300781 45.117188 682.261719 48.148438 679.226562 51.175781 C 674.035156 56.359375 668.839844 61.542969 663.640625 66.71875 C 661.523438 68.832031 659.40625 70.941406 657.289062 73.058594 L 655.941406 74.40625 C 654.59375 75.753906 653.25 77.109375 651.910156 78.464844 C 650.578125 79.8125 649.246094 81.15625 647.910156 82.5 C 647.203125 83.210938 646.5 83.925781 645.796875 84.636719 C 644.777344 85.667969 643.753906 86.699219 642.730469 87.726562 L 641.777344 88.699219 C 641.011719 89.460938 640.21875 90.195312 639.421875 90.925781 L 638.304688 90.925781 L 637.851562 91.9375 C 637.191406 93.15625 636.578125 93.949219 635.515625 94.832031 L 634.398438 94.832031 L 633.941406 95.839844 C 633.28125 97.066406 632.625 97.863281 631.644531 98.84375 L 630.621094 99.878906 L 629.492188 100.996094 L 628.292969 102.203125 C 626.957031 103.542969 625.613281 104.882812 624.273438 106.222656 C 623.308594 107.1875 622.339844 108.15625 621.375 109.125 C 619.273438 111.234375 617.164062 113.339844 615.058594 115.445312 C 611.925781 118.578125 608.792969 121.710938 605.664062 124.847656 C 599.746094 130.769531 593.828125 136.695312 587.902344 142.613281 C 581.679688 148.835938 575.460938 155.058594 569.242188 161.28125 C 560.035156 170.488281 550.832031 179.695312 541.621094 188.90625 L 540.570312 189.957031 L 532.105469 198.417969 C 521.113281 209.40625 510.125 220.402344 499.136719 231.398438 C 485.148438 245.402344 471.160156 259.398438 457.164062 273.386719 C 452.269531 278.28125 447.378906 283.175781 442.488281 288.070312 C 436.921875 293.644531 431.355469 299.214844 425.78125 304.777344 C 422.664062 307.890625 419.550781 311.007812 416.441406 314.125 C 414.113281 316.457031 411.785156 318.785156 409.449219 321.109375 C 408.511719 322.046875 407.570312 322.988281 406.632812 323.929688 C 401.65625 328.929688 396.703125 333.589844 390.964844 337.707031 C 390.28125 338.222656 389.601562 338.742188 388.917969 339.257812 C 373.171875 350.746094 354.867188 358.777344 335.691406 362.273438 L 333.941406 362.605469 C 311.875 366.636719 289.03125 364.949219 267.808594 357.523438 C 265.660156 356.738281 263.542969 355.886719 261.429688 355.015625 L 260.183594 354.515625 C 250.847656 350.738281 242.414062 345.574219 234.28125 339.664062 L 232.910156 338.667969 L 231.644531 337.726562 L 230.53125 336.898438 C 229.515625 335.949219 229.03125 335.070312 228.488281 333.800781 L 229.300781 333 C 230.53125 331.777344 231.761719 330.558594 232.992188 329.332031 L 234.265625 328.074219 L 235.523438 326.820312 L 236.667969 325.6875 C 237.746094 324.554688 238.769531 323.402344 239.792969 322.21875 C 241.96875 319.714844 244.292969 317.378906 246.652344 315.042969 L 248 313.707031 C 249.875 311.835938 251.757812 309.96875 253.640625 308.101562 C 255.023438 306.730469 256.40625 305.355469 257.785156 303.980469 L 259.054688 302.726562 L 260.269531 301.515625 L 261.320312 300.476562 C 262.363281 299.375 263.355469 298.253906 264.34375 297.105469 C 266.539062 294.585938 268.875 292.226562 271.246094 289.871094 L 272.648438 288.472656 C 273.644531 287.476562 274.644531 286.484375 275.644531 285.488281 C 277.226562 283.914062 278.808594 282.335938 280.390625 280.757812 C 284.03125 277.121094 287.675781 273.488281 291.320312 269.855469 C 294.664062 266.523438 298.003906 263.191406 301.347656 259.859375 C 303.167969 258.042969 304.988281 256.226562 306.808594 254.414062 L 309.683594 251.542969 L 310.984375 250.253906 C 313.246094 247.992188 315.398438 245.675781 317.488281 243.253906 C 318.769531 241.789062 320.125 240.425781 321.507812 239.054688 L 322.371094 238.191406 C 322.984375 237.582031 323.59375 236.972656 324.207031 236.367188 C 325.179688 235.402344 326.148438 234.4375 327.117188 233.472656 C 329.167969 231.425781 331.226562 229.378906 333.28125 227.332031 C 335.671875 224.957031 338.0625 222.578125 340.449219 220.195312 C 341.402344 219.25 342.355469 218.300781 343.308594 217.355469 L 345.066406 215.605469 L 346.609375 214.070312 C 347.898438 212.71875 349.054688 211.320312 350.207031 209.851562 C 351.125 208.90625 352.054688 207.976562 353 207.058594 C 353.578125 206.480469 354.160156 205.902344 354.738281 205.328125 L 355.683594 204.386719 C 357.09375 202.984375 358.503906 201.582031 359.914062 200.175781 C 360.652344 199.441406 361.390625 198.703125 362.128906 197.96875 C 363.210938 196.894531 364.289062 195.824219 365.363281 194.746094 L 366.351562 193.769531 C 367.960938 192.160156 369.507812 190.519531 370.988281 188.789062 C 373.058594 186.414062 375.242188 184.183594 377.476562 181.964844 C 378.804688 180.644531 380.128906 179.320312 381.457031 178 C 382.890625 176.574219 384.324219 175.144531 385.753906 173.714844 C 389.308594 170.171875 392.863281 166.628906 396.417969 163.085938 C 399.429688 160.085938 402.4375 157.085938 405.445312 154.082031 C 406.851562 152.679688 408.257812 151.28125 409.664062 149.882812 L 412.269531 147.285156 L 413.441406 146.121094 C 415.605469 143.957031 417.683594 141.714844 419.671875 139.394531 C 421.152344 137.703125 422.746094 136.136719 424.34375 134.5625 L 425.386719 133.523438 C 426.839844 132.082031 428.292969 130.640625 429.75 129.203125 C 430.820312 128.140625 431.890625 127.078125 432.960938 126.011719 L 433.9375 125.050781 C 435.515625 123.484375 437.023438 121.890625 438.464844 120.199219 C 440.964844 117.332031 443.644531 114.65625 446.332031 111.96875 L 448.019531 110.273438 C 449.539062 108.753906 451.054688 107.230469 452.574219 105.710938 C 453.527344 104.761719 454.480469 103.808594 455.433594 102.855469 C 458.761719 99.519531 462.09375 96.1875 465.421875 92.855469 C 468.515625 89.765625 471.601562 86.671875 474.6875 83.574219 C 477.351562 80.90625 480.015625 78.238281 482.683594 75.570312 C 484.269531 73.984375 485.855469 72.398438 487.4375 70.808594 C 488.929688 69.3125 490.425781 67.816406 491.921875 66.324219 C 492.722656 65.523438 493.519531 64.722656 494.316406 63.917969 C 497.664062 60.589844 501.164062 57.5625 504.863281 54.632812 C 505.550781 54.082031 506.234375 53.527344 506.917969 52.976562 C 520.492188 42.175781 535.585938 33.023438 551.765625 26.71875 L 553.007812 26.222656 C 576.289062 16.957031 601.273438 12.734375 626.273438 12.644531 "/><path style=" stroke:none;fill-rule:nonzero;fill:#febc24;fill-opacity:1;" d="M 715.914062 65.800781 C 717.101562 67.582031 717.210938 68.246094 717.355469 70.316406 L 717.484375 72.074219 L 717.609375 73.984375 L 717.75 75.964844 C 717.898438 78.066406 718.042969 80.167969 718.183594 82.269531 L 718.476562 86.417969 C 718.710938 89.761719 718.9375 93.105469 719.152344 96.449219 C 719.246094 97.90625 719.347656 99.359375 719.453125 100.816406 C 720.027344 109.429688 719.949219 118.078125 719.957031 126.710938 C 719.960938 128.570312 719.96875 130.429688 719.980469 132.289062 C 720.085938 148.203125 719.679688 164.097656 716.402344 179.734375 L 716.15625 180.960938 C 712.769531 197.75 707.691406 213.933594 700.28125 229.390625 L 699.566406 230.890625 C 690.433594 249.757812 677.648438 266.84375 662.710938 281.488281 C 660.378906 283.777344 658.144531 286.105469 656.015625 288.589844 C 654.320312 290.542969 652.539062 292.417969 650.765625 294.296875 L 649.589844 295.546875 C 646.984375 298.300781 644.328125 301.007812 641.628906 303.667969 C 639.839844 305.441406 638.171875 307.28125 636.542969 309.203125 C 634.773438 311.179688 632.859375 313.015625 630.960938 314.871094 C 629.773438 316.054688 628.667969 317.292969 627.574219 318.570312 C 624.707031 321.882812 621.542969 324.90625 618.421875 327.980469 C 616.351562 330.03125 614.304688 332.070312 612.414062 334.289062 C 609.421875 337.78125 606.066406 340.945312 602.796875 344.175781 C 599.738281 347.199219 596.71875 350.21875 593.925781 353.492188 C 592.355469 355.292969 590.628906 356.9375 588.914062 358.601562 C 587.40625 360.085938 585.960938 361.628906 584.585938 363.234375 C 582.5625 365.554688 580.429688 367.730469 578.242188 369.890625 L 577.070312 371.058594 C 575.847656 372.273438 574.625 373.484375 573.402344 374.699219 C 571.777344 376.304688 570.160156 377.914062 568.542969 379.523438 L 567.421875 380.628906 C 567.074219 380.972656 566.730469 381.316406 566.375 381.667969 L 565.460938 382.574219 C 564.554688 383.507812 564.554688 383.507812 563.726562 384.722656 L 562.929688 385.726562 L 561.816406 385.726562 L 561.367188 386.726562 C 560.679688 387.992188 559.984375 388.792969 558.957031 389.789062 L 557.929688 390.796875 L 556.859375 391.832031 C 554.097656 394.507812 554.097656 394.507812 551.585938 397.417969 L 550.648438 398.566406 L 549.53125 398.566406 L 549.085938 399.5625 C 548.382812 400.855469 547.652344 401.695312 546.605469 402.726562 L 545.496094 403.832031 L 544.289062 405.015625 L 543.046875 406.25 C 541.734375 407.550781 540.417969 408.851562 539.097656 410.152344 C 537.789062 411.445312 536.484375 412.738281 535.179688 414.03125 C 534.367188 414.835938 533.554688 415.640625 532.742188 416.441406 C 530.53125 418.628906 528.441406 420.882812 526.410156 423.238281 C 525.234375 424.582031 523.988281 425.839844 522.714844 427.09375 L 521.203125 428.59375 L 518.117188 431.632812 C 514.925781 434.800781 514.925781 434.800781 511.914062 438.140625 C 508.824219 441.746094 505.351562 445.011719 501.976562 448.34375 C 501.058594 449.253906 500.144531 450.160156 499.230469 451.066406 L 498.402344 451.878906 C 496.886719 453.390625 495.429688 454.957031 494.03125 456.582031 C 492.074219 458.839844 490 460.953125 487.871094 463.054688 L 486.714844 464.203125 C 485.101562 465.808594 483.488281 467.410156 481.871094 469.007812 C 480.683594 470.1875 479.496094 471.367188 478.308594 472.546875 L 477.222656 473.617188 C 475.109375 475.71875 473.125 477.890625 471.175781 480.144531 C 469.832031 481.675781 468.402344 483.105469 466.949219 484.53125 L 466.058594 485.421875 C 464.816406 486.648438 463.574219 487.878906 462.332031 489.105469 C 461.417969 490.011719 460.503906 490.917969 459.585938 491.824219 L 458.761719 492.640625 C 457.292969 494.097656 455.886719 495.613281 454.542969 497.1875 C 452.277344 499.78125 449.867188 502.214844 447.429688 504.644531 L 445.972656 506.097656 C 444.671875 507.398438 443.367188 508.699219 442.0625 510 C 440.695312 511.363281 439.328125 512.730469 437.964844 514.09375 C 435.382812 516.675781 432.800781 519.253906 430.21875 521.832031 C 427.273438 524.769531 424.332031 527.707031 421.390625 530.644531 C 415.347656 536.683594 409.300781 542.722656 403.25 548.757812 C 401.527344 547.0625 399.996094 545.453125 398.652344 543.441406 L 397.6875 542.007812 L 396.6875 540.488281 L 395.644531 538.910156 C 392.746094 534.488281 390.078125 529.984375 387.613281 525.308594 L 387.082031 524.304688 C 376.542969 504.335938 373.09375 482.144531 373.574219 459.742188 C 373.792969 454.382812 374.542969 449.089844 375.332031 443.792969 L 375.660156 441.359375 C 378.839844 419.425781 388.996094 398.8125 402.097656 381.152344 C 402.335938 380.832031 402.574219 380.507812 402.820312 380.171875 C 407.753906 373.664062 413.28125 367.710938 419.0625 361.957031 L 421.058594 359.957031 C 422.867188 358.144531 424.675781 356.335938 426.488281 354.53125 C 428.449219 352.574219 430.410156 350.613281 432.367188 348.652344 C 436.195312 344.820312 440.023438 340.992188 443.855469 337.167969 C 448.320312 332.707031 452.785156 328.246094 457.246094 323.78125 C 465.210938 315.820312 473.175781 307.859375 481.144531 299.898438 C 488.867188 292.183594 496.589844 284.464844 504.3125 276.742188 L 507.195312 273.859375 C 515.996094 265.054688 524.800781 256.253906 533.605469 247.453125 L 542.933594 238.128906 C 546.722656 234.339844 550.511719 230.554688 554.300781 226.769531 C 556.234375 224.839844 558.167969 222.910156 560.097656 220.976562 C 561.867188 219.207031 563.636719 217.441406 565.40625 215.671875 L 567.324219 213.757812 C 570.304688 210.773438 573.292969 207.835938 576.5 205.089844 C 577.882812 203.890625 579.175781 202.609375 580.46875 201.316406 L 581.289062 200.496094 C 582.179688 199.605469 583.070312 198.710938 583.957031 197.820312 C 584.605469 197.175781 585.25 196.527344 585.894531 195.882812 C 587.636719 194.144531 589.375 192.402344 591.113281 190.660156 C 592.9375 188.832031 594.761719 187.003906 596.589844 185.175781 C 600.046875 181.71875 603.5 178.257812 606.957031 174.800781 C 610.878906 170.871094 614.804688 166.941406 618.726562 163.015625 C 625.4375 156.300781 632.144531 149.585938 638.851562 142.867188 L 641.972656 139.746094 C 642.894531 138.820312 643.824219 137.898438 644.753906 136.976562 C 646.050781 135.664062 647.285156 134.316406 648.507812 132.929688 C 650.917969 130.238281 653.417969 127.660156 655.980469 125.113281 L 657.355469 123.738281 C 658.835938 122.257812 660.316406 120.78125 661.800781 119.300781 L 664.914062 116.191406 C 667.355469 113.753906 669.796875 111.3125 672.242188 108.875 C 675.015625 106.109375 677.785156 103.339844 680.558594 100.570312 C 685.691406 95.441406 690.828125 90.316406 695.964844 85.1875 L 697.0625 84.09375 C 697.921875 83.234375 698.78125 82.371094 699.640625 81.507812 C 700.917969 80.242188 702.246094 79.058594 703.597656 77.875 C 705.554688 76.128906 707.277344 74.355469 708.933594 72.328125 C 710.234375 70.863281 711.71875 69.621094 713.21875 68.355469 C 714.152344 67.542969 715.054688 66.691406 715.914062 65.800781 "/><path style=" stroke:none;fill-rule:nonzero;fill:#13c066;fill-opacity:1;" d="M 371.355469 47.820312 L 374.230469 47.808594 C 377.304688 47.796875 380.382812 47.796875 383.460938 47.792969 L 385.054688 47.792969 C 411.476562 47.777344 437.792969 48.800781 464.105469 51.285156 C 463.191406 53.609375 461.496094 55.164062 459.757812 56.886719 L 458.753906 57.890625 C 457.660156 58.984375 456.5625 60.078125 455.464844 61.171875 L 453.175781 63.460938 C 451.570312 65.0625 449.96875 66.660156 448.359375 68.261719 C 446.3125 70.300781 444.265625 72.34375 442.222656 74.386719 C 440.644531 75.964844 439.0625 77.542969 437.484375 79.121094 L 435.222656 81.378906 C 434.164062 82.4375 433.101562 83.492188 432.039062 84.546875 L 431.113281 85.476562 C 429.523438 87.054688 427.882812 88.574219 426.1875 90.039062 C 423.847656 92.066406 421.65625 94.222656 419.472656 96.421875 L 418.207031 97.691406 C 417.304688 98.59375 416.40625 99.496094 415.503906 100.402344 C 414.078125 101.832031 412.652344 103.265625 411.222656 104.695312 C 408.191406 107.734375 405.160156 110.777344 402.132812 113.816406 C 398.621094 117.34375 395.105469 120.867188 391.589844 124.390625 C 390.1875 125.796875 388.789062 127.203125 387.386719 128.609375 L 384.789062 131.210938 L 383.625 132.386719 C 381.460938 134.550781 379.230469 136.601562 376.914062 138.601562 C 375.515625 139.828125 374.203125 141.125 372.890625 142.445312 L 372.085938 143.253906 C 371.519531 143.820312 370.949219 144.394531 370.382812 144.964844 C 369.484375 145.871094 368.582031 146.777344 367.675781 147.683594 C 365.761719 149.609375 363.84375 151.53125 361.929688 153.457031 C 359.710938 155.695312 357.488281 157.925781 355.261719 160.160156 C 354.382812 161.042969 353.5 161.929688 352.621094 162.816406 C 350.011719 165.4375 347.378906 167.984375 344.570312 170.390625 C 342.546875 172.167969 340.667969 174.09375 338.773438 176.003906 L 337.457031 177.320312 C 336.089844 178.695312 334.71875 180.070312 333.351562 181.445312 L 330.578125 184.226562 C 328.882812 185.925781 327.191406 187.625 325.5 189.324219 L 324.382812 190.441406 C 323.609375 191.222656 322.84375 192.003906 322.078125 192.789062 C 320.746094 194.089844 319.382812 195.324219 317.992188 196.5625 C 315.0625 199.183594 312.28125 201.929688 309.515625 204.726562 L 307.992188 206.253906 C 306.40625 207.847656 304.820312 209.441406 303.238281 211.035156 C 301.144531 213.144531 299.046875 215.253906 296.953125 217.355469 L 295.519531 218.804688 C 293.125 221.207031 290.6875 223.515625 288.113281 225.726562 C 286.683594 226.976562 285.359375 228.300781 284.027344 229.652344 L 283.214844 230.472656 C 282.375 231.320312 281.53125 232.171875 280.695312 233.019531 C 279.585938 234.144531 278.472656 235.269531 277.363281 236.386719 L 275.886719 237.882812 C 274.691406 239.066406 273.445312 240.167969 272.171875 241.265625 C 269.535156 243.550781 267.09375 246.003906 264.640625 248.480469 C 264.164062 248.960938 263.683594 249.441406 263.191406 249.9375 C 261.671875 251.460938 260.15625 252.988281 258.640625 254.515625 C 256.640625 256.53125 254.640625 258.542969 252.636719 260.554688 L 251.269531 261.9375 C 248.945312 264.273438 246.570312 266.503906 244.070312 268.652344 C 242.28125 270.230469 240.617188 271.925781 238.941406 273.621094 L 237.828125 274.742188 C 236.667969 275.910156 235.511719 277.078125 234.351562 278.246094 C 232.824219 279.789062 231.292969 281.328125 229.761719 282.871094 L 228.730469 283.917969 C 226.65625 286.003906 224.507812 287.960938 222.28125 289.882812 C 220.796875 291.191406 219.414062 292.574219 218.019531 293.984375 L 217.171875 294.839844 C 216.289062 295.730469 215.410156 296.617188 214.53125 297.507812 C 211.273438 300.8125 208.03125 304.089844 204.5 307.105469 C 201.441406 309.832031 198.636719 312.851562 195.769531 315.78125 C 192.769531 318.816406 189.699219 321.621094 186.363281 324.28125 C 185.09375 325.304688 183.851562 326.367188 182.640625 327.460938 C 169.214844 339.308594 152.214844 347.910156 135.25 353.34375 L 133.945312 353.769531 C 126.890625 356.070312 119.691406 357.789062 112.355469 358.925781 L 111.070312 359.125 C 97.992188 361.054688 84.609375 360.433594 71.597656 358.367188 L 70.128906 358.140625 C 52.15625 355.273438 35.164062 347.394531 20.230469 337.148438 L 19.253906 336.484375 C 17.699219 335.425781 16.164062 334.347656 14.648438 333.242188 C 14.785156 332.28125 14.785156 332.28125 15.207031 331.007812 C 16.203125 329.816406 16.203125 329.816406 17.515625 328.519531 L 19 327.039062 L 20.621094 325.453125 C 21.171875 324.902344 21.726562 324.351562 22.277344 323.804688 C 23.738281 322.355469 25.199219 320.910156 26.664062 319.46875 C 28.996094 317.167969 31.320312 314.863281 33.648438 312.554688 C 34.453125 311.757812 35.261719 310.960938 36.074219 310.164062 L 37.589844 308.660156 L 38.910156 307.359375 C 39.980469 306.246094 41.015625 305.097656 42.015625 303.921875 C 44.945312 300.550781 48.148438 297.441406 51.3125 294.289062 L 53.449219 292.15625 C 54.972656 290.632812 56.5 289.109375 58.027344 287.589844 C 60.441406 285.179688 62.855469 282.769531 65.269531 280.359375 C 70.390625 275.246094 75.511719 270.132812 80.636719 265.019531 C 86.175781 259.496094 91.710938 253.96875 97.246094 248.441406 C 99.644531 246.046875 102.042969 243.652344 104.445312 241.257812 C 105.9375 239.769531 107.429688 238.28125 108.917969 236.789062 C 109.609375 236.101562 110.300781 235.410156 110.992188 234.722656 C 111.9375 233.78125 112.882812 232.839844 113.824219 231.894531 L 114.652344 231.074219 C 116.242188 229.476562 117.664062 227.8125 119.054688 226.042969 C 119.742188 225.398438 120.445312 224.777344 121.164062 224.175781 C 123.476562 222.199219 125.628906 220.101562 127.769531 217.941406 L 128.933594 216.777344 C 130.144531 215.5625 131.351562 214.347656 132.5625 213.128906 L 135.011719 210.671875 C 136.835938 208.84375 138.660156 207.011719 140.484375 205.175781 C 141.300781 204.355469 142.125 203.539062 142.949219 202.722656 C 144.25 201.441406 144.25 201.441406 145.578125 199.800781 C 147.460938 197.542969 149.480469 195.558594 151.71875 193.660156 C 154.394531 191.386719 156.726562 188.910156 158.988281 186.234375 C 160.132812 184.921875 161.359375 183.707031 162.605469 182.492188 L 163.550781 181.480469 L 164.28125 180.816406 L 165.398438 180.816406 L 165.78125 179.839844 C 166.710938 178.25 167.867188 177.503906 169.304688 176.351562 C 170.304688 175.261719 171.261719 174.144531 172.226562 173.023438 C 173.59375 171.449219 175.039062 169.953125 176.566406 168.535156 L 177.679688 168.535156 L 178.085938 167.582031 C 178.957031 166.015625 180.007812 164.949219 181.277344 163.683594 L 182.042969 162.914062 C 182.890625 162.0625 183.742188 161.214844 184.59375 160.367188 L 186.421875 158.539062 C 188.074219 156.882812 189.734375 155.226562 191.390625 153.574219 C 193.128906 151.84375 194.863281 150.109375 196.597656 148.371094 C 199.515625 145.457031 202.433594 142.542969 205.355469 139.628906 C 208.722656 136.269531 212.089844 132.90625 215.453125 129.542969 C 219.039062 125.953125 222.628906 122.367188 226.222656 118.78125 L 229.3125 115.691406 C 230.9375 114.066406 232.566406 112.445312 234.191406 110.820312 L 235.976562 109.042969 C 238.871094 106.144531 241.777344 103.292969 244.898438 100.636719 C 246.175781 99.53125 247.351562 98.339844 248.523438 97.128906 L 249.960938 95.65625 L 251.453125 94.136719 C 255.851562 89.6875 260.292969 85.671875 265.339844 81.992188 L 266.972656 80.726562 C 288.71875 63.917969 314.59375 53.578125 341.765625 49.859375 C 351.640625 48.535156 361.398438 47.84375 371.355469 47.820312 "/><path style=" stroke:none;fill-rule:nonzero;fill:#1982fe;fill-opacity:1;" d="M 665.105469 331.007812 L 665.664062 331.007812 C 666.097656 335.808594 666.511719 340.609375 666.910156 345.410156 C 667.164062 348.464844 667.425781 351.519531 667.695312 354.570312 C 669.171875 371.386719 670.40625 388.132812 670.410156 405.023438 L 670.417969 406.996094 C 670.4375 419.191406 669.269531 431.144531 666.640625 443.058594 L 666.390625 444.226562 C 662.664062 461.335938 656.304688 477.917969 647.238281 492.925781 L 646.609375 493.976562 C 638.75 506.996094 629.585938 519.847656 618.632812 530.464844 C 617.679688 531.421875 616.808594 532.40625 615.9375 533.4375 C 613.609375 536.160156 611.042969 538.644531 608.488281 541.148438 C 606.835938 542.777344 605.242188 544.414062 603.746094 546.191406 C 601.003906 549.339844 598.023438 552.253906 595.0625 555.195312 C 593.984375 556.265625 592.910156 557.335938 591.835938 558.410156 C 589.167969 561.066406 586.496094 563.726562 583.824219 566.382812 C 581.5625 568.636719 579.300781 570.890625 577.039062 573.144531 C 575.988281 574.191406 574.933594 575.238281 573.878906 576.285156 C 570.992188 579.164062 568.152344 582.035156 565.507812 585.140625 C 563.71875 587.175781 561.769531 589.058594 559.84375 590.964844 L 558.5 592.304688 C 556.617188 594.171875 554.738281 596.042969 552.855469 597.90625 C 551.472656 599.28125 550.09375 600.652344 548.710938 602.027344 L 547.441406 603.285156 L 546.226562 604.492188 L 545.175781 605.535156 C 544.171875 606.589844 543.226562 607.664062 542.277344 608.773438 C 539.730469 611.691406 536.992188 614.414062 534.25 617.148438 L 532.503906 618.894531 C 530.917969 620.484375 529.328125 622.070312 527.738281 623.65625 C 526.019531 625.375 524.304688 627.089844 522.589844 628.808594 C 519.617188 631.777344 516.644531 634.75 513.671875 637.71875 C 509.375 642.011719 505.078125 646.304688 500.785156 650.601562 C 493.816406 657.570312 486.847656 664.539062 479.871094 671.503906 C 473.097656 678.269531 466.324219 685.035156 459.558594 691.804688 L 458.292969 693.070312 L 452.007812 699.351562 C 434.640625 716.714844 417.269531 734.074219 399.898438 751.433594 C 398.1875 750.679688 397.617188 750.253906 396.421875 748.710938 C 395.96875 748.027344 395.523438 747.34375 395.082031 746.652344 L 394.351562 745.527344 C 393.585938 744.335938 392.832031 743.140625 392.082031 741.941406 L 391.359375 740.796875 C 380.164062 722.910156 374.617188 702.675781 373.65625 681.640625 L 373.566406 679.75 C 373.0625 658.460938 379.171875 637.386719 389.246094 618.792969 C 395.941406 606.738281 404.285156 595.292969 414.285156 585.753906 C 415.285156 584.742188 416.191406 583.722656 417.109375 582.636719 C 420.808594 578.375 424.945312 574.492188 428.953125 570.523438 C 430.0625 569.421875 431.171875 568.320312 432.28125 567.21875 L 433.292969 566.21875 C 434.90625 564.617188 436.453125 562.988281 437.929688 561.257812 C 440.59375 558.175781 443.503906 555.34375 446.390625 552.476562 C 447.449219 551.425781 448.503906 550.371094 449.558594 549.320312 C 452.183594 546.707031 454.804688 544.09375 457.429688 541.484375 C 459.652344 539.269531 461.875 537.058594 464.097656 534.839844 C 465.128906 533.8125 466.164062 532.78125 467.203125 531.753906 L 469.128906 529.835938 L 469.984375 528.988281 C 471.492188 527.476562 472.941406 525.914062 474.332031 524.296875 C 476.574219 521.710938 478.976562 519.296875 481.402344 516.882812 L 482.875 515.410156 C 484.195312 514.089844 485.519531 512.769531 486.839844 511.449219 C 488.230469 510.0625 489.621094 508.675781 491.007812 507.289062 C 493.636719 504.664062 496.265625 502.039062 498.894531 499.414062 C 501.878906 496.4375 504.859375 493.457031 507.84375 490.476562 C 513.757812 484.566406 519.675781 478.65625 525.59375 472.75 C 526.234375 472.113281 526.875 471.472656 527.519531 470.835938 C 529.046875 469.3125 530.5 467.742188 531.933594 466.132812 C 536.886719 460.667969 542.207031 455.546875 547.4375 450.351562 C 549.535156 448.269531 551.632812 446.183594 553.726562 444.097656 L 555.164062 442.675781 C 557.144531 440.703125 559.089844 438.726562 560.910156 436.597656 C 563.265625 433.863281 565.832031 431.335938 568.394531 428.792969 C 569.304688 427.894531 570.210938 426.992188 571.117188 426.085938 C 573.363281 423.847656 575.613281 421.609375 577.867188 419.371094 C 579.777344 417.472656 581.683594 415.574219 583.589844 413.675781 C 584.476562 412.792969 585.363281 411.910156 586.25 411.03125 C 588.90625 408.386719 591.496094 405.714844 593.933594 402.863281 C 595.085938 401.539062 596.316406 400.304688 597.566406 399.074219 L 599.078125 397.574219 L 602.160156 394.535156 L 603.671875 393.035156 L 605.023438 391.703125 C 606.113281 390.570312 607.167969 389.40625 608.1875 388.210938 C 610.621094 385.417969 613.226562 382.8125 615.847656 380.195312 L 617.464844 378.578125 C 618.914062 377.125 620.363281 375.671875 621.816406 374.222656 C 623.339844 372.703125 624.859375 371.179688 626.378906 369.660156 C 628.929688 367.109375 631.480469 364.558594 634.03125 362.011719 C 636.984375 359.0625 639.933594 356.109375 642.882812 353.160156 C 645.417969 350.621094 647.953125 348.082031 650.492188 345.546875 C 652.007812 344.035156 653.519531 342.519531 655.035156 341.003906 C 656.453125 339.585938 657.871094 338.167969 659.292969 336.75 C 660.066406 335.976562 660.835938 335.203125 661.609375 334.433594 L 662.988281 333.054688 L 664.195312 331.851562 Z M 665.105469 331.007812 "/></g></svg>